<svg width="102" height="32" viewBox="0 0 102 32" fill="none" xmlns="http://www.w3.org/2000/svg">
<g clip-path="url(#clip0_4049_702)">
<g clip-path="url(#clip1_4049_702)">
<path d="M97.9417 7.88071C99.2222 15.1694 79.2451 24.7147 53.3167 29.2002C27.3913 33.6856 5.33644 31.4096 4.05799 24.1178C2.78057 16.828 22.7629 7.2858 48.6882 2.80138C74.6146 -1.68612 96.6653 0.589939 97.9417 7.88071Z" fill="#1D1D1D"/>
<path d="M73.5406 18.7008L73.4074 11.1218H75.8135V20.6743H72.3541L69.9531 12.8348H69.9015L70.0347 20.6743H67.644V11.1218H71.2532L73.4869 18.7008H73.5406Z" fill="white"/>
<path d="M29.8038 12.0162L28.4727 20.7748H25.8486L27.6507 11.1218H31.9734L33.7672 20.7748H31.1535L29.8585 12.0162H29.8038Z" fill="white"/>
<path d="M39.8786 20.7748L38.2532 12.0963H38.2005L38.1396 20.7748H35.7056L35.9204 11.1218H39.8858L41.0858 18.5008H41.1374L42.3384 11.1218H46.3019L46.5125 20.7748H44.0837L44.0196 12.0963H43.969L42.3446 20.7748H39.8786Z" fill="white"/>
<path d="M21.756 18.0516C21.851 18.2855 21.8221 18.586 21.7777 18.7675C21.6961 19.0886 21.4771 19.4158 20.8307 19.4158C20.2214 19.4158 19.8517 19.0691 19.8517 18.5388V17.6044H17.2452L17.2432 18.3521C17.2432 20.5041 18.9491 21.1534 20.777 21.1534C22.5346 21.1534 23.9824 20.5564 24.2127 18.9481C24.3304 18.1142 24.2426 17.5685 24.2024 17.3623C23.7924 15.3417 20.1037 14.7385 19.829 13.6082C19.7825 13.4143 19.7959 13.2092 19.8187 13.0994C19.8858 12.7917 20.0985 12.4522 20.7068 12.4522C21.2747 12.4522 21.6104 12.801 21.6104 13.3282C21.6104 13.5056 21.6104 13.9241 21.6104 13.9241H24.034V13.2461C24.034 11.1434 22.1339 10.8152 20.7574 10.8152C19.0287 10.8152 17.616 11.3824 17.3578 12.9538C17.2876 13.3877 17.2772 13.7744 17.3795 14.2585C17.8039 16.231 21.2561 16.8023 21.756 18.0516Z" fill="white"/>
<path d="M53.3581 18.034C53.4541 18.2659 53.4232 18.5582 53.3798 18.7397C53.3003 19.0598 53.0834 19.3818 52.4411 19.3818C51.8401 19.3818 51.4735 19.0351 51.4735 18.5172L51.4714 17.5909H48.8918L48.8887 18.3284C48.8887 20.4588 50.5792 21.102 52.3884 21.102C54.1274 21.102 55.5618 20.5132 55.788 18.9192C55.9057 18.0915 55.8221 17.553 55.7797 17.3509C55.3718 15.3487 51.7203 14.7518 51.4487 13.6327C51.4022 13.4399 51.4156 13.2368 51.4394 13.1332C51.5086 12.8234 51.7172 12.4921 52.3192 12.4921C52.882 12.4921 53.2104 12.8326 53.2104 13.3558C53.2104 13.5312 53.2104 13.9455 53.2104 13.9455H55.6155V13.2747C55.6155 11.1946 53.7309 10.8684 52.3678 10.8684C50.6587 10.8684 49.2573 11.4284 49.0043 12.9886C48.9341 13.4163 48.9269 13.7958 49.027 14.2779C49.4453 16.2298 52.8635 16.797 53.3581 18.034Z" fill="white"/>
<path d="M61.5215 19.3306C62.1958 19.3306 62.4065 18.8669 62.4529 18.63C62.4726 18.5254 62.4777 18.3859 62.4757 18.2607V11.1177H64.9334V18.0423C64.9386 18.2197 64.921 18.5849 64.9128 18.6762C64.7403 20.4783 63.3059 21.063 61.5204 21.063C59.7329 21.063 58.2974 20.4783 58.1271 18.6762C58.1188 18.5849 58.1012 18.2197 58.1064 18.0423V11.1177H60.5621V18.2607C60.5621 18.3859 60.5662 18.5264 60.5848 18.63C60.6375 18.8669 60.842 19.3306 61.5215 19.3306Z" fill="white"/>
<path d="M81.7946 19.2291C82.4988 19.2291 82.7446 18.787 82.7901 18.5295C82.8076 18.4187 82.8128 18.2844 82.8117 18.1623V16.7612H81.8142V15.3519H85.2602V17.9428C85.2582 18.1233 85.254 18.2567 85.2251 18.5787C85.063 20.3348 83.5295 20.9615 81.807 20.9615C80.0814 20.9615 78.5499 20.3348 78.3857 18.5787C78.3578 18.2567 78.3537 18.1233 78.3506 17.9428L78.3527 13.8779C78.3527 13.7066 78.3743 13.403 78.3929 13.242C78.6088 11.4377 80.0814 10.8572 81.807 10.8572C83.5305 10.8572 85.0392 11.4347 85.2179 13.242C85.2499 13.5497 85.2396 13.8779 85.2396 13.8779V14.2H82.789V13.6594C82.7911 13.6605 82.7859 13.4297 82.757 13.2922C82.7157 13.0789 82.5288 12.5886 81.7884 12.5886C81.08 12.5886 80.8724 13.0522 80.8208 13.2922C80.7908 13.4194 80.7794 13.5917 80.7794 13.7476V18.1623C80.7774 18.2844 80.7846 18.4187 80.8042 18.5295C80.8466 18.788 81.0913 19.2291 81.7946 19.2291Z" fill="white"/>
</g>
</g>
<defs>
<clipPath id="clip0_4049_702">
<rect width="102" height="31" fill="white" transform="translate(0 0.5)"/>
</clipPath>
<clipPath id="clip1_4049_702">
<rect width="94" height="31" fill="white" transform="translate(4 0.5)"/>
</clipPath>
</defs>
</svg>
