<svg width="48" height="48" viewBox="0 0 48 48" fill="none" xmlns="http://www.w3.org/2000/svg">
<g clip-path="url(#clip0_4049_688)">
<mask id="mask0_4049_688" style="mask-type:luminance" maskUnits="userSpaceOnUse" x="-178" y="-50" width="270" height="192">
<path d="M-177.893 -49.4838H91.5117V141.006H-177.893V-49.4838Z" fill="white"/>
</mask>
<g mask="url(#mask0_4049_688)">
<path fill-rule="evenodd" clip-rule="evenodd" d="M46.1719 47.9966H1.81775C0.811363 47.9966 -0.00439453 47.1808 -0.00439453 46.1743V1.81712C-0.00439453 0.810661 0.811363 -0.00469208 1.81775 -0.00469208H46.1719C47.1783 -0.00469208 47.994 0.810661 47.994 1.81712V46.1743C47.994 47.1808 47.1783 47.9966 46.1719 47.9966Z" fill="#1D1D1D"/>
<path d="M37.6329 15.0926H33.8568C33.6951 15.0926 33.5642 15.2212 33.5642 15.3797V32.6098C33.5642 32.7669 33.6951 32.8955 33.8568 32.8955H37.6329C37.7932 32.8955 37.926 32.7669 37.926 32.6098V15.3797C37.926 15.2212 37.7932 15.0926 37.6329 15.0926Z" fill="white"/>
<path d="M24.7395 15.093H10.3556C10.194 15.093 10.064 15.2217 10.064 15.3801V32.6103C10.064 32.7674 10.194 32.896 10.3556 32.896H14.1327C14.2935 32.896 14.4267 32.7674 14.4267 32.6103V19.0872C14.4267 18.931 14.5566 18.8015 14.7183 18.8015H22.8544C25.1423 18.8015 25.7918 20.5539 25.7918 21.6844V32.6103C25.7918 32.7674 25.9232 32.896 26.0849 32.896H29.8596C30.0204 32.896 30.1522 32.7674 30.1522 32.6103V20.3872C30.1522 19.3789 30.031 17.9291 28.7301 16.653C27.3691 15.3209 26.1276 15.093 24.7395 15.093Z" fill="white"/>
<path d="M22.0938 21.9555H18.1284C17.9667 21.9555 17.834 22.0841 17.834 22.2416V32.6112C17.834 32.7679 17.9667 32.8965 18.1284 32.8965H22.0938C22.2541 32.8965 22.3855 32.7679 22.3855 32.6112V22.2416C22.3855 22.0841 22.2541 21.9555 22.0938 21.9555Z" fill="white"/>
</g>
</g>
<defs>
<clipPath id="clip0_4049_688">
<rect width="48" height="48" fill="white"/>
</clipPath>
</defs>
</svg>
