<svg width="65" height="20" viewBox="0 0 65 20" fill="none" xmlns="http://www.w3.org/2000/svg">
<path d="M56.2166 13.401C56.2441 13.1527 56.2602 12.902 56.2602 12.648C56.2602 8.80391 53.0436 5.68945 49.0752 5.68945C45.1079 5.68945 41.8918 8.80391 41.8918 12.648C41.8918 16.4909 45.108 19.6042 49.0752 19.6042C52.0932 19.6042 54.673 17.8057 55.7394 15.2504L52.6426 14.713C51.9567 15.9563 50.6586 16.7938 49.1749 16.7938C47.2054 16.7938 45.5745 15.3268 45.2464 13.4009L56.2166 13.401ZM49.175 8.57742C50.8567 8.57742 52.2931 9.65 52.8794 11.1683H45.4661C46.0508 9.65008 47.4904 8.57742 49.175 8.57742Z" fill="#1D1D1D"/>
<path d="M39.9608 5.98096H36.2917V19.3544H39.9608V5.98096Z" fill="#1D1D1D"/>
<path d="M38.1276 0.528076C36.995 0.528076 36.0806 1.43862 36.0806 2.55565C36.0806 3.67097 36.995 4.57909 38.1276 4.57909C39.2556 4.57909 40.172 3.67097 40.172 2.55565C40.172 1.43862 39.2556 0.528076 38.1276 0.528076Z" fill="#1D1D1D"/>
<path d="M13.8354 1.69312V8.89241H5.92685V1.69312H1.91626V19.3424H5.92685V12.1428H13.8354V19.3424H17.8493V1.69312H13.8354Z" fill="#1D1D1D"/>
<path d="M30.3952 5.98719V6.70477C29.3288 6.06484 28.0791 5.69727 26.7401 5.69727C22.8505 5.69727 19.6958 8.80977 19.6958 12.6509C19.6958 16.4912 22.8505 19.6045 26.7401 19.6045C28.0444 19.6045 29.2629 19.2536 30.3105 18.6459V19.3426H33.8906V5.98719H30.3952ZM26.919 16.6727C24.649 16.6727 22.8139 14.8737 22.8139 12.6524C22.8139 10.4293 24.6489 8.62898 26.919 8.62898C29.1885 8.62898 31.0265 10.4293 31.0265 12.6524C31.0265 14.8737 29.1884 16.6727 26.919 16.6727Z" fill="#1D1D1D"/>
<path d="M63.8466 4.73901C60.4678 5.32276 57.8991 8.23401 57.8596 11.7452V19.3544H61.3727L61.3745 11.6021C61.3745 9.82745 62.7197 8.36284 64.4535 8.15269L63.8466 4.73901Z" fill="#1D1D1D"/>
</svg>
